<?xml version="1.0" encoding="utf-8"?>
<!-- Generator: Adobe Illustrator 24.1.0, SVG Export Plug-In . SVG Version: 6.00 Build 0)  -->
<svg version="1.1" id="Layer_1" xmlns="http://www.w3.org/2000/svg" xmlns:xlink="http://www.w3.org/1999/xlink" x="0px" y="0px"
	 viewBox="0 0 356.7 76.4" style="enable-background:new 0 0 356.7 76.4;" xml:space="preserve">
<style type="text/css">
	.st0{fill:#FFFFFF;}
	.st1{font-family:'HelveticaNeueLTPro-LtCnO';}
	.st2{font-size:32px;}
	.st3{fill:#EC1C24;}
	.st4{fill:#171616;}
</style>
<path id="Path_465" class="st0" d="M34.1,21.1c-9.7-3.9-20.7,0.9-24.6,10.6s0.9,20.7,10.6,24.6s20.7-0.9,24.6-10.6
	c1.4-3.5,1.7-7.3,0.9-11L26,52.2l0-2l28.7-25.6l0-3.4L25.9,46.8l0-2l23-20.6l0-3.4l-23,20.6l0-2l17.1-15.3l0-3.4L25.8,35.9l0-2
	l11.3-10.1l0-3.4L25.8,30.5l0-2L34.1,21.1z"/>
<text transform="matrix(1 0 0 1 61.1032 51.6368)" class="st0 st1 st2">GOES</text>
<path class="st3" d="M43.7,7.2c-3.7-1.5-7.8-2.3-12-2.2C14.1,5.1,0.1,19.4,0.2,36.9c0.2,17.5,14.5,31.6,32,31.4
	c17.5-0.2,31.6-14.5,31.4-32c0-2.2-0.3-4.3-0.7-6.4L30.1,59.2l0-3.3L78.2,13l-0.1-5.8L30,50.1l0-3.3l38.5-34.4l-0.1-5.8L30,41l0-3.3
	l28.5-25.6l0-5.8L29.9,32l0-3.3l18.9-16.9L48.7,6L29.8,22.9l0-3.3L43.7,7.2z"/>
<g id="Logo" transform="translate(-133.56 74.247)">
	<path id="Path_1" class="st4" d="M220.3-40c1.6-7.4,3.1-14.5,12.8-14.5c6,0,7.7,3.3,6.2,9.3h-5.7c0.8-3.7,0.4-5.1-1.3-5.1
		c-3.3,0-4.4,3.1-5.9,10.3s-1.8,10.3,1.5,10.3c2.7,0,3.3-3.5,3.9-5.7h5.8c-1.6,7.5-5.1,9.9-10.6,9.9C217.2-25.5,218.7-32.7,220.3-40
		z"/>
	<path id="Path_2" class="st4" d="M240.6-36c1.1-5.4,2.9-9.9,10.1-9.9c7.2,0,7,4.6,5.9,9.9c-1.3,6.1-3.2,10.4-10.2,10.4
		C239.3-25.6,239.3-29.9,240.6-36z M251.2-36.3c0.9-4.1,1.1-6.1-1.2-6.1c-2.3,0-3,2.1-3.8,6.1c-1.3,6-1,7.3,1,7.3
		S249.9-30.4,251.2-36.3z"/>
	<path id="Path_3" class="st4" d="M267.7-45.6l-0.5,2.5h0.1c1.2-1.9,3.4-3.1,5.7-2.9l-1,4.9c-4.7-0.3-5.4,2.5-5.8,4.4L263.8-26h-5.5
		l4.2-19.6L267.7-45.6z"/>
	<path id="Path_4" class="st4" d="M280.6-45.6l-0.5,2.2h0.1c1.2-1.7,3.1-2.7,5.2-2.6c5.7,0,4.1,6.3,3.3,10.3c-0.8,4-2,10.1-7.5,10.1
		c-2,0-3.2-0.6-4-2.3h-0.1l-2.2,10.3h-5.5l6-28H280.6z M283.4-36c0.8-3.9,1.5-6.6-0.9-6.6c-2.3,0-2.8,2.7-3.6,6.6
		c-1,4.9-1.1,7,0.7,7C281.5-29,282.3-31,283.4-36L283.4-36z"/>
	<path id="Path_5" class="st4" d="M292.3-36c1.1-5.4,2.9-9.9,10.1-9.9c7.2,0,7,4.6,5.9,9.9c-1.3,6.1-3.2,10.4-10.2,10.4
		S291-29.9,292.3-36z M302.9-36.3c0.9-4.1,1.1-6.1-1.2-6.1s-3,2.1-3.8,6.1c-1.3,6-1,7.3,1,7.3S301.7-30.4,302.9-36.3L302.9-36.3z"/>
	<path id="Path_6" class="st4" d="M319.5-45.6l-0.5,2.5h0.1c1.2-1.9,3.4-3.1,5.7-2.9l-1,4.9c-4.7-0.3-5.4,2.5-5.8,4.4L315.6-26h-5.5
		l4.2-19.6L319.5-45.6z"/>
	<path id="Path_7" class="st4" d="M338.7-29.6c-0.3,1.2-0.4,2.4-0.5,3.7h-5.1l0.3-2.6h-0.1c-1.6,2-3.4,3-5.8,3
		c-3.8,0-4.6-2.8-3.9-6.3c1.4-6.5,6.4-6.8,11.5-6.7l0.3-1.5c0.4-1.7,0.4-2.9-1.6-2.9c-1.9,0-2.4,1.4-2.7,3h-5.4
		c0.5-2.4,1.6-3.9,3-4.8c1.6-0.9,3.5-1.4,5.4-1.3c7,0,7.2,3,6.5,6.6L338.7-29.6z M329.1-32.1c-0.3,1.4-0.4,3.1,1.4,3.1
		c3.2,0,3.6-4.4,4.1-6.5C331.8-35.3,329.8-35.6,329.1-32.1L329.1-32.1z"/>
	<path id="Path_8" class="st4" d="M344.4-45.6h2.2l0.7-3.1l6-2.4l-1.2,5.6h2.8l-0.7,3.4h-2.8l-2.2,10.5c-0.3,1.5-0.6,2.4,1.2,2.4
		c0.3,0,0.7,0,1-0.1l-0.7,3.4c-1,0.1-1.9,0.2-2.9,0.2c-4.7,0-4.7-3.1-4.4-4.3l2.6-12.1h-2.2L344.4-45.6z"/>
	<path id="Path_9" class="st4" d="M360.2-34.9c-0.5,2.3-1.2,5.8,1.2,5.8c1.9,0,2.7-1.9,3.1-3.5h5.6c-0.4,2-1.6,3.8-3.2,5.1
		c-1.8,1.3-4,2-6.2,1.9c-7.1,0-7.1-4.3-5.8-10.4c1.1-5.4,2.9-9.9,10.1-9.9c7.4,0,7.2,4.8,5.7,11.1L360.2-34.9z M365.8-38
		c0.4-1.9,1.1-4.6-1.5-4.6c-2.5,0-3.1,3-3.5,4.6H365.8z"/>
	<path id="Path_10" class="st4" d="M399.1-45.4c0.6-2.6,0.7-4.9-2.5-4.9c-3.7,0-4.7,4.9-5.9,10.4c-1.9,8.8-1.3,10.3,2,10.3
		c1,0,2.1-0.2,3-0.5l1.3-6.2H394l0.9-4.3h9.1l-3,14.2c-2.7,0.5-5.4,0.8-8.1,0.9c-9.9,0-10.1-4.1-7.9-14.7c1.5-7.1,3.4-14.3,13-14.3
		c5.7,0,8.6,3.2,7,9.1L399.1-45.4z"/>
	<path id="Path_11" class="st4" d="M421.3-29.6c-0.3,1.2-0.4,2.4-0.5,3.7h-5.1l0.3-2.6h-0.1c-1.6,2-3.4,3-5.8,3
		c-3.8,0-4.6-2.8-3.9-6.3c1.4-6.5,6.4-6.8,11.5-6.7l0.3-1.5c0.4-1.7,0.4-2.9-1.6-2.9c-1.9,0-2.4,1.4-2.7,3h-5.4
		c0.5-2.4,1.6-3.9,3-4.8c1.6-0.9,3.5-1.4,5.4-1.3c7,0,7.2,3,6.5,6.6L421.3-29.6z M411.7-32.1c-0.3,1.4-0.4,3.1,1.4,3.1
		c3.2,0,3.6-4.4,4.1-6.5C414.4-35.3,412.4-35.6,411.7-32.1L411.7-32.1z"/>
	<path id="Path_12" class="st4" d="M433.8-43.6L433.8-43.6c1.3-1.6,3.2-2.5,5.2-2.4c1.7-0.1,3.3,0.9,3.9,2.5
		c1.4-1.6,3.5-2.5,5.6-2.5c2.6,0,4.6,1.6,4,4.3L449.2-26h-5.5l2.9-13.5c0.4-1.7,0.4-3.1-1.4-3.1s-2.3,1.4-2.7,3.1L439.6-26h-5.4
		l2.9-13.5c0.4-1.7,0.4-3.1-1.4-3.1s-2.3,1.4-2.7,3.1L430.1-26h-5.5l4.2-19.6h5.5L433.8-43.6z"/>
	<path id="Path_13" class="st4" d="M460-34.9c-0.5,2.3-1.2,5.8,1.2,5.8c1.9,0,2.7-1.9,3.1-3.5h5.6c-0.4,2-1.6,3.8-3.2,5.1
		c-1.8,1.3-4,2-6.2,1.9c-7.1,0-7.1-4.3-5.8-10.4c1.1-5.4,2.9-9.9,10.1-9.9c7.4,0,7.2,4.8,5.6,11.1L460-34.9z M465.7-38
		c0.4-1.9,1.1-4.6-1.5-4.6c-2.5,0-3.1,3-3.5,4.6H465.7z"/>
	<path id="Path_14" class="st4" d="M478.1-32.3c-0.2,0.8-0.3,1.6-0.2,2.4c0.2,0.6,0.7,0.9,1.8,0.9c1.2,0,2.2-0.8,2.4-2
		c0.9-4.2-8.9-3.2-7.6-9.5c0.9-4.2,5.4-5.5,8.9-5.5c3.7,0,6.7,1.8,5.5,6h-5.4c0.3-1.4,0.3-2.2,0-2.5c-0.3-0.3-0.8-0.5-1.3-0.4
		c-1.2,0-2,0.8-2.3,2.1c-0.7,3.1,9,3,7.7,9.2c-0.7,3.4-4.1,6-8.6,6c-4.8,0-7.7-1.2-6.2-6.7L478.1-32.3z"/>
</g>
</svg>
