<?xml version="1.0" encoding="utf-8"?>
<!-- Generator: Adobe Illustrator 24.1.0, SVG Export Plug-In . SVG Version: 6.00 Build 0)  -->
<svg version="1.1" id="Layer_1" xmlns="http://www.w3.org/2000/svg" xmlns:xlink="http://www.w3.org/1999/xlink" x="0px" y="0px"
	 viewBox="0 0 167.9 63.4" style="enable-background:new 0 0 167.9 63.4;" xml:space="preserve">
<style type="text/css">
	.st0{fill:#ED1C24;}
	.st1{fill:#FFFFFF;}
	.st2{fill:none;stroke:#ED1C24;stroke-width:0.7;}
</style>
<g id="Layer_2_1_">
	<g id="Layer_1-2">
		<path class="st0" d="M78.4,34c0.9-4.4,1.8-8.6,7.6-8.6c3.5,0,4.6,2,3.7,5.5h-3.4c0.5-2.2,0.3-3-0.8-3c-2,0-2.6,1.8-3.5,6.1
			s-1,6.1,0.9,6.1c1.6,0,2-2.1,2.3-3.4h3.4c-0.9,4.4-3,5.9-6.2,5.9C76.6,42.5,77.5,38.3,78.4,34z"/>
		<path class="st0" d="M90.4,36.3c0.7-3.2,1.7-5.9,6-5.9s4.2,2.7,3.5,5.9c-0.8,3.7-1.9,6.2-6.1,6.2S89.6,40,90.4,36.3z M96.7,36.1
			c0.5-2.4,0.7-3.6-0.7-3.6s-1.8,1.2-2.3,3.6c-0.8,3.5-0.6,4.3,0.6,4.3S95.9,39.7,96.7,36.1z"/>
		<path class="st0" d="M106.5,30.7l-0.3,1.5l0,0c0.7-1.1,2-1.8,3.4-1.7l-0.6,2.9c-2.8-0.2-3.2,1.5-3.5,2.6l-1.3,6.3h-3.2l2.5-11.6
			L106.5,30.7z"/>
		<path class="st0" d="M114.1,30.7l-0.3,1.3l0,0c0.7-1,1.8-1.6,3.1-1.5c3.4,0,2.4,3.7,1.9,6.1s-1.2,6-4.4,6c-1,0.1-2-0.4-2.4-1.3
			l0,0l-1.3,6.1h-3.2l3.5-16.7H114.1z M115.8,36.4c0.5-2.3,0.9-3.9-0.5-3.9s-1.7,1.6-2.2,3.9c-0.6,2.9-0.7,4.1,0.4,4.1
			S115.1,39.3,115.8,36.4z"/>
		<path class="st0" d="M121,36.3c0.7-3.2,1.7-5.9,6-5.9s4.2,2.7,3.5,5.9c-0.8,3.6-1.9,6.2-6,6.2S120.3,40,121,36.3z M127.3,36.1
			c0.5-2.4,0.7-3.6-0.7-3.6s-1.8,1.2-2.3,3.6c-0.8,3.5-0.6,4.3,0.6,4.3S126.6,39.7,127.3,36.1L127.3,36.1z"/>
		<path class="st0" d="M137.1,30.7l-0.3,1.5l0,0c0.7-1.1,2-1.8,3.4-1.7l-0.6,2.9c-2.8-0.2-3.2,1.5-3.4,2.6l-1.4,6.3h-3.2l2.5-11.6
			H137.1z"/>
		<path class="st0" d="M148.5,40.1c-0.1,0.7-0.2,1.4-0.3,2.2h-3l0.2-1.5h-0.1c-0.8,1.1-2.1,1.8-3.4,1.8c-2.2,0-2.7-1.7-2.3-3.7
			c0.8-3.8,3.8-4,6.8-4l0.2-0.9c0.2-1,0.2-1.7-0.9-1.7s-1.4,0.8-1.6,1.8h-3.2c0.2-1.2,0.8-2.2,1.8-2.8c1-0.6,2.1-0.8,3.2-0.8
			c4.1,0,4.3,1.8,3.8,3.9L148.5,40.1z M142.8,38.7c-0.2,0.8-0.2,1.8,0.8,1.8c1.9,0,2.1-2.6,2.4-3.8
			C144.4,36.7,143.2,36.6,142.8,38.7L142.8,38.7z"/>
		<path class="st0" d="M151.9,30.7h1.3l0.4-1.8l3.6-1.5l-0.7,3.3h1.7l-0.4,2H156l-1.3,6.2c-0.2,0.9-0.3,1.5,0.7,1.5
			c0.2,0,0.4,0,0.6,0l-0.4,2c-0.6,0.1-1.1,0.1-1.7,0.1c-2.8,0-2.8-1.9-2.6-2.6l1.5-7.2h-1.3L151.9,30.7z"/>
		<path class="st0" d="M161.2,37c-0.3,1.4-0.7,3.5,0.7,3.5c1.1,0,1.6-1.1,1.8-2.1h3.2c-0.3,1.2-0.9,2.2-1.9,3
			c-1.1,0.8-2.4,1.2-3.7,1.1c-4.2,0-4.2-2.6-3.4-6.2c0.7-3.2,1.7-5.9,6-5.9s4.2,2.8,3.3,6.6L161.2,37z M164.6,35.2
			c0.2-1.1,0.6-2.7-0.9-2.7s-1.9,1.8-2.1,2.7H164.6z"/>
		<path class="st0" d="M84.4,50.4c0.3-1.5,0.4-2.9-1.4-2.9c-2.2,0-2.8,2.9-3.5,6.1c-1.1,5.2-0.8,6.1,1.2,6.1c0.6,0,1.2-0.1,1.8-0.3
			l0.8-3.7h-1.9l0.6-2.5h5.3l-1.8,8.4c-1.6,0.3-3.2,0.5-4.8,0.6c-5.8,0-6-2.4-4.6-8.7c0.9-4.2,2-8.4,7.7-8.4c3.4,0,5.1,1.9,4.2,5.4
			L84.4,50.4z"/>
		<path class="st0" d="M97.5,59.7c-0.2,0.7-0.2,1.5-0.3,2.2h-3l0.2-1.5l0,0c-0.8,1.1-2.1,1.8-3.4,1.8c-2.3,0-2.7-1.7-2.3-3.7
			c0.8-3.8,3.8-4,6.8-4l0.2-0.9c0.2-1,0.2-1.7-0.9-1.7s-1.4,0.8-1.6,1.8h-3.2c0.2-1.2,0.8-2.2,1.8-2.8c1-0.5,2.1-0.8,3.2-0.8
			c4.1,0,4.3,1.8,3.8,3.9L97.5,59.7z M91.8,58.3c-0.2,0.8-0.3,1.8,0.8,1.8c1.9,0,2.2-2.6,2.4-3.8C93.4,56.4,92.3,56.2,91.8,58.3z"/>
		<path class="st0" d="M104.9,51.5L104.9,51.5c0.7-0.9,1.8-1.4,3-1.4c1-0.1,1.9,0.5,2.3,1.5c0.8-1,2.1-1.5,3.3-1.5
			c1.5,0,2.7,0.9,2.4,2.5l-2,9.3h-3.2l1.7-8c0.2-1,0.2-1.8-0.8-1.8s-1.4,0.8-1.6,1.8l-1.7,8h-3.2l1.7-8c0.2-1,0.2-1.8-0.8-1.8
			s-1.4,0.8-1.6,1.8l-1.7,8h-3.2l2.5-11.6h3.2L104.9,51.5z"/>
		<path class="st0" d="M120.4,56.6c-0.3,1.4-0.7,3.5,0.7,3.5c1.2,0,1.6-1.1,1.8-2.1h3.3c-0.3,1.2-0.9,2.2-1.9,3
			c-1.1,0.8-2.4,1.2-3.7,1.1c-4.2,0-4.2-2.5-3.4-6.2c0.7-3.2,1.7-5.9,6-5.9s4.2,2.8,3.3,6.5L120.4,56.6z M123.8,54.8
			c0.2-1.1,0.6-2.7-0.9-2.7s-1.8,1.8-2,2.7H123.8z"/>
		<path class="st0" d="M131.2,58.2c-0.1,0.5-0.2,0.9-0.1,1.4c0.1,0.4,0.4,0.5,1.1,0.5c0.7,0,1.3-0.5,1.4-1.2
			c0.5-2.5-5.3-1.9-4.5-5.6c0.5-2.5,3.2-3.3,5.3-3.3s4,1,3.3,3.6h-3.2c0.2-0.8,0.2-1.3,0-1.5c-0.2-0.2-0.5-0.3-0.8-0.2
			c-0.7,0-1.3,0.5-1.4,1.2c-0.4,1.8,5.3,1.8,4.5,5.5c-0.4,2-2.4,3.5-5.1,3.5s-4.6-0.7-3.7-4L131.2,58.2z"/>
		<path class="st1" d="M90.5,6.3l1.6,16.6h-1.5l-0.4-4.4h-6.5l-2.2,4.4H80l8.8-16.6H90.5z M90.1,17.3l-0.8-9.4h-0.1l-4.8,9.4H90.1z"
			/>
		<path class="st1" d="M103.7,11.2l-2.5,11.6H100l0.3-1.3l0,0c-0.8,1-2,1.5-3.3,1.5c-2.4,0-2.7-1.7-2.3-3.6l1.8-8.2h1.4l-1.7,8
			c-0.1,0.3-0.7,2.8,1.3,2.8c1.5-0.1,2.7-1.1,3.1-2.5l1.7-8.2L103.7,11.2z"/>
		<path class="st1" d="M107.1,23.1c-2.5,0-3.2-1.2-2.7-3.7h1.4c-0.3,1.6-0.2,2.6,1.6,2.6c1.2,0.1,2.3-0.8,2.4-2
			c0.7-3-4.7-2.2-3.9-6.1c0.5-2.1,2.1-2.9,4.1-2.9c2.3,0,2.7,1.6,2.3,3.4H111c0.2-1.5,0-2.2-1.5-2.2c-1,0-1.9,0.7-2.1,1.7
			c-0.6,2.9,4.8,2.1,3.9,6C111,21.8,109.2,23.3,107.1,23.1z"/>
		<path class="st1" d="M114.2,12.3l0.2-1.1h1.9l0.5-2.4l1.5-0.6l-0.6,3h2.3l-0.2,1.1h-2.3l-1.6,7.4c-0.3,1.5-0.2,1.9,0.8,1.9
			c0.4,0,0.7,0,1.1-0.1l-0.3,1.2c-0.4,0-0.9,0.1-1.3,0.1c-1.9,0-2.2-0.8-1.9-2.2l1.8-8.3L114.2,12.3z"/>
		<path class="st1" d="M123,12.8L123,12.8c0.9-1.2,2.2-1.8,3.7-1.8l-0.3,1.4c-1.9-0.2-3.6,1.1-3.9,3l-1.6,7.5h-1.4l2.5-11.6h1.4
			L123,12.8z"/>
		<path class="st1" d="M132.1,21.4L132.1,21.4c-0.9,1.1-2.2,1.7-3.6,1.6c-2.1,0-2.9-1.4-2.5-3.4c0.9-4.1,4.9-3.6,7.3-3.8l0.2-1
			c0.4-1.7,0.1-2.7-1.8-2.7c-1.3-0.1-2.4,0.8-2.7,2h-1.5c0.6-2.2,2.5-3.1,4.5-3.1c1.2,0,3.6,0.1,3,3.1l-1.2,5.8
			c-0.2,1-0.4,1.9-0.5,2.9h-1.4L132.1,21.4z M133,16.9c-2,0.1-4.9-0.2-5.5,2.7c-0.3,1.3,0.2,2.4,1.6,2.4c1.7-0.1,3.1-1.3,3.5-2.9
			L133,16.9z"/>
		<path class="st1" d="M136.5,22.8L140,6.3h1.4l-3.5,16.6H136.5z"/>
		<path class="st1" d="M141.6,22.8l2.5-11.6h1.4L143,22.8H141.6z M144.6,8l0.4-1.8h1.7L146.3,8L144.6,8z"/>
		<path class="st1" d="M152.5,21.4L152.5,21.4c-1,1.1-2.3,1.7-3.7,1.6c-2.1,0-2.9-1.4-2.5-3.4c0.9-4.1,4.9-3.6,7.2-3.8l0.2-1
			c0.4-1.7,0.1-2.7-1.8-2.7c-1.3-0.1-2.4,0.7-2.7,2h-1.5c0.6-2.2,2.5-3.1,4.5-3.1c1.2,0,3.6,0.1,2.9,3.1l-1.2,5.8
			c-0.2,1-0.4,1.9-0.5,2.9h-1.4L152.5,21.4z M153.4,16.9c-2,0.1-4.9-0.2-5.5,2.7c-0.3,1.3,0.1,2.4,1.6,2.4c1.7-0.1,3.1-1.3,3.6-3
			L153.4,16.9z"/>
		<path class="st1" d="M157.8,22.8h-1.4l2.5-11.6h1.4l-0.3,1.4l0,0c0.8-1,1.9-1.6,3.2-1.7c2.9,0,2.7,2.1,2.4,3.6l-1.8,8.2h-1.4
			l1.7-8.1c0.3-1.4,0-2.6-1.6-2.6c-1.2,0-2.7,0.9-3.2,3.4L157.8,22.8z"/>
		<path class="st2" d="M142.1,57.5c-1,1-1,2.7,0,3.7c1,1,2.7,1,3.7,0c1-1,1-2.7,0-3.7c-0.5-0.5-1.2-0.8-1.9-0.8
			C143.3,56.7,142.6,56.9,142.1,57.5z"/>
		<path class="st0" d="M143.6,58.3L143.6,58.3c0.3,0,0.6,0,0.6,0.4s-0.3,0.4-0.5,0.4h-0.1V58.3z M144.4,59.6
			c0.4-0.1,0.7-0.5,0.6-0.9c0-0.5-0.3-1-0.9-1c0,0-0.1,0-0.1,0h-1.1V61h0.8v-1.3l0,0l0.7,1.3h1L144.4,59.6z"/>
		<path class="st0" d="M43.5,2.2C27.2-4.2,8.7,3.7,2.3,20S3.8,54.7,20,61.2s34.7-1.5,41.2-17.8c1.5-3.8,2.3-7.9,2.2-12
			c0-2.1-0.3-4.3-0.7-6.4L29.9,54.3V51L77.9,8V2.3L29.8,45.2v-3.3L68.3,7.5l-0.1-5.8L29.8,36.1v-3.3L58.2,7.3V1.5L29.7,27v-3.3
			L48.5,6.9l0-5.8L29.6,18v-3.3L43.5,2.2z"/>
	</g>
</g>
</svg>
