<?xml version="1.0" encoding="utf-8"?>
<!-- Generator: Adobe Illustrator 24.1.0, SVG Export Plug-In . SVG Version: 6.00 Build 0)  -->
<svg version="1.1" id="Layer_1" xmlns="http://www.w3.org/2000/svg" xmlns:xlink="http://www.w3.org/1999/xlink" x="0px" y="0px"
	 viewBox="0 0 200.6 70.9" style="enable-background:new 0 0 200.6 70.9;" xml:space="preserve">
<style type="text/css">
	.st0{fill:#ED1C24;}
	.st1{font-family:'Univers-CondensedBoldOblique';}
	.st2{font-size:22.9755px;}
	.st3{letter-spacing:-2;}
	.st4{fill:#FFFFFF;}
	.st5{font-family:'Univers-CondensedLightOblique';}
	.st6{fill:none;stroke:#ED1C24;stroke-width:0.7003;}
</style>
<g>
	<text transform="matrix(1 0 0 1 79.3551 45.6375)" class="st0 st1 st2">Corporat</text>
	<text transform="matrix(1 0 0 1 159.8551 45.6375)" class="st0 st1 st2">e </text>
	<text transform="matrix(1 0 0 1 76.9551 65.3375)" class="st0 st1 st2">Game</text>
	<text transform="matrix(1 0 0 1 130.5551 65.3375)" class="st0 st1 st2">s</text>
	<text transform="matrix(1 0 0 1 140.2551 65.3375)" class="st0 st1 st2 st3"> </text>
</g>
<g>
	<text transform="matrix(1 0 0 1 83.71 26.2161)" class="st4 st5 st2">Queensland</text>
</g>
<g>
	<g>
		<path class="st6" d="M146.2,60.9c-0.5,0.5-0.8,1.1-0.8,1.9c0,0.7,0.3,1.4,0.8,1.9s1.1,0.8,1.9,0.8c0.7,0,1.4-0.3,1.9-0.8
			s0.8-1.1,0.8-1.9c0-0.7-0.3-1.4-0.8-1.9s-1.1-0.8-1.9-0.8C147.3,60.1,146.7,60.3,146.2,60.9z"/>
	</g>
	<path class="st0" d="M147.7,61.8L147.7,61.8c0.3,0,0.6,0.1,0.6,0.4c0,0.4-0.3,0.4-0.5,0.4h-0.1V61.8z M148.4,63
		c0.4-0.1,0.6-0.5,0.6-0.9c0-0.7-0.4-1-1-1h-1.2v3.3h0.8v-1.3l0,0l0.7,1.3h1L148.4,63z"/>
</g>
<path class="st0" d="M47.5,5.7c-3.7-1.5-7.8-2.3-12-2.2C18,3.6,3.9,17.9,4,35.4C4.2,52.9,18.5,67,36,66.8s31.6-14.5,31.4-32
	c0-2.2-0.3-4.3-0.7-6.4L33.9,57.7v-3.3L82,11.5l-0.1-5.8l-48,42.9v-3.3l38.5-34.4l-0.1-5.8L33.8,39.5v-3.3l28.5-25.6V4.8L33.7,30.5
	v-3.3l18.9-16.9l-0.1-5.8L33.6,21.4v-3.3L47.5,5.7z"/>
</svg>
